<svg version="1.1" id="Layer_1" xmlns="http://www.w3.org/2000/svg" xmlns:xlink="http://www.w3.org/1999/xlink" x="0px" y="0px"
	 width="100%" viewBox="0 0 512 512" enable-background="new 0 0 512 512" xml:space="preserve">
<path fill="#336B7C" opacity="1.000000" stroke="none" 
	d="
M333.000000,513.000000 
	C222.026962,513.000000 111.553917,513.000000 1.040437,513.000000 
	C1.040437,342.401947 1.040437,171.803864 1.040437,1.102891 
	C171.556381,1.102891 342.112854,1.102891 512.834656,1.102891 
	C512.834656,171.666534 512.834656,342.333252 512.834656,513.000000 
	C453.137177,513.000000 393.318573,513.000000 333.000000,513.000000 
M369.481659,231.487503 
	C368.331757,231.617615 367.181824,231.747726 365.102997,232.040405 
	C353.058502,231.984924 341.014008,231.929443 328.772034,231.685928 
	C328.532349,231.532837 328.292267,231.563202 327.431091,231.734634 
	C326.697510,230.804901 325.963928,229.875183 325.359528,228.711365 
	C325.459259,228.450424 325.384583,228.224930 324.978149,227.104813 
	C325.027252,199.391937 325.076385,171.679077 325.500275,143.550995 
	C325.375336,142.711945 325.250397,141.872910 324.969086,140.118378 
	C325.022125,136.400894 325.075165,132.683411 325.565002,128.272247 
	C325.709686,122.545486 326.013611,116.816803 325.944824,111.092606 
	C325.896393,107.058121 325.341888,103.029724 324.428528,98.448891 
	C322.799957,97.880585 321.180969,96.855934 319.541168,96.821335 
	C311.556213,96.652878 303.559174,96.942566 295.579651,96.675079 
	C291.199097,96.528221 289.835602,98.091873 289.841003,102.434151 
	C289.900726,150.531738 289.766327,198.629532 289.759277,246.727264 
	C289.757507,258.753113 298.563934,267.118347 310.623291,267.076385 
	C327.760315,267.016724 344.897858,267.100006 362.715546,267.566376 
	C367.132141,267.418793 371.548706,267.271210 376.649506,266.967987 
	C377.111450,267.019897 377.573425,267.071777 378.654968,267.550781 
	C381.091919,267.407715 383.528839,267.264618 386.894196,266.961884 
	C392.608307,267.021332 398.322449,267.080780 404.281342,267.270691 
	C404.550079,267.319672 404.788513,267.226105 405.395630,266.316406 
	C405.911041,264.993622 406.851105,263.677734 406.872681,262.346954 
	C407.009888,253.877747 407.046478,245.402954 406.857300,236.935791 
	C406.820831,235.304306 405.638275,233.698425 404.322784,231.581650 
	C394.226044,231.679550 384.129333,231.777435 373.229248,232.037445 
	C372.142059,231.983566 371.054871,231.929688 369.481659,231.487503 
M248.247330,299.133728 
	C248.423676,299.251862 248.600037,299.370026 248.521927,300.166229 
	C233.591919,330.754303 220.248032,361.959503 210.017822,395.697693 
	C214.779694,394.954010 217.926254,394.701447 220.950363,393.953644 
	C253.503479,385.904083 277.662415,368.041168 287.668823,334.831512 
	C294.385468,312.539856 291.949615,290.080811 284.133453,268.657257 
	C274.192047,241.408432 263.085358,214.565338 251.837830,187.817780 
	C239.938583,159.520416 227.237778,131.560745 215.004044,103.402763 
	C212.937531,98.646378 209.781235,96.461784 204.573929,96.790268 
	C200.423523,97.052071 196.208618,97.207596 192.086304,96.785568 
	C185.793503,96.141319 182.394485,98.751541 179.952560,104.521057 
	C169.151840,130.039932 157.838226,155.341583 147.016525,180.851776 
	C135.547958,207.886810 124.417259,235.065247 113.159119,262.189423 
	C110.929680,267.560760 111.899841,268.930328 117.860970,268.959412 
	C123.027184,268.984589 128.194275,269.022400 133.359818,268.959229 
	C151.180481,268.741302 147.466156,271.422394 154.254761,254.963120 
	C156.963074,248.396652 159.120163,246.982254 166.409988,246.977997 
	C185.408737,246.966873 204.417328,247.334290 223.401993,246.817093 
	C232.518600,246.568710 239.939575,249.477234 246.789215,254.935455 
	C251.397461,258.607605 251.281357,260.254700 245.871933,263.033783 
	C241.001816,265.535858 235.998322,267.777588 231.118637,270.261841 
	C211.824860,280.084198 196.225067,294.002075 185.096695,312.638367 
	C171.813217,334.883728 172.224594,366.410919 186.635971,384.845093 
	C190.717957,390.066559 191.269577,394.686523 189.540680,400.392822 
	C188.819763,402.772308 188.241043,405.196320 187.644989,407.611786 
	C186.997711,410.234833 186.405457,412.871460 185.642380,416.129028 
	C188.861816,416.129028 191.164383,415.976166 193.438965,416.163361 
	C197.249664,416.476959 198.750778,415.309296 199.305878,411.068970 
	C202.051285,390.097382 207.037369,369.629486 214.991669,349.979065 
	C222.721161,330.884003 232.357925,312.966003 248.247330,299.133728 
z"/>
<path fill="#FBFAEE" opacity="1.000000" stroke="none" 
	d="
M247.743073,298.744781 
	C232.357925,312.966003 222.721161,330.884003 214.991669,349.979065 
	C207.037369,369.629486 202.051285,390.097382 199.305878,411.068970 
	C198.750778,415.309296 197.249664,416.476959 193.438965,416.163361 
	C191.164383,415.976166 188.861816,416.129028 185.642380,416.129028 
	C186.405457,412.871460 186.997711,410.234833 187.644989,407.611786 
	C188.241043,405.196320 188.819763,402.772308 189.540680,400.392822 
	C191.269577,394.686523 190.717957,390.066559 186.635971,384.845093 
	C172.224594,366.410919 171.813217,334.883728 185.096695,312.638367 
	C196.225067,294.002075 211.824860,280.084198 231.118637,270.261841 
	C235.998322,267.777588 241.001816,265.535858 245.871933,263.033783 
	C251.281357,260.254700 251.397461,258.607605 246.789215,254.935455 
	C239.939575,249.477234 232.518600,246.568710 223.401993,246.817093 
	C204.417328,247.334290 185.408737,246.966873 166.409988,246.977997 
	C159.120163,246.982254 156.963074,248.396652 154.254761,254.963120 
	C147.466156,271.422394 151.180481,268.741302 133.359818,268.959229 
	C128.194275,269.022400 123.027184,268.984589 117.860970,268.959412 
	C111.899841,268.930328 110.929680,267.560760 113.159119,262.189423 
	C124.417259,235.065247 135.547958,207.886810 147.016525,180.851776 
	C157.838226,155.341583 169.151840,130.039932 179.952560,104.521057 
	C182.394485,98.751541 185.793503,96.141319 192.086304,96.785568 
	C196.208618,97.207596 200.423523,97.052071 204.573929,96.790268 
	C209.781235,96.461784 212.937531,98.646378 215.004044,103.402763 
	C227.237778,131.560745 239.938583,159.520416 251.837830,187.817780 
	C263.085358,214.565338 274.192047,241.408432 284.133453,268.657257 
	C291.949615,290.080811 294.385468,312.539856 287.668823,334.831512 
	C277.662415,368.041168 253.503479,385.904083 220.950363,393.953644 
	C217.926254,394.701447 214.779694,394.954010 210.017822,395.697693 
	C220.248032,361.959503 233.591919,330.754303 248.795044,299.551666 
	C248.908447,298.596497 248.748749,298.255890 248.589050,297.915283 
	C248.307053,298.191772 248.025070,298.468292 247.743073,298.744781 
M218.406082,198.021729 
	C212.010468,182.876221 205.614868,167.730698 198.830292,151.664017 
	C197.287857,153.607956 196.387955,154.355728 195.980270,155.313095 
	C188.131973,173.742935 180.277176,192.170670 172.590652,210.668213 
	C170.965500,214.579132 172.493210,216.576950 177.046951,216.619949 
	C191.181000,216.753433 205.317322,216.758057 219.451828,216.668213 
	C224.079605,216.638809 225.249634,214.651825 223.530945,210.165359 
	C222.050629,206.301132 220.384247,202.508194 218.406082,198.021729 
z"/>
<path fill="#FBFBEF" opacity="1.000000" stroke="none" 
	d="
M362.035156,267.122192 
	C344.897858,267.100006 327.760315,267.016724 310.623291,267.076385 
	C298.563934,267.118347 289.757507,258.753113 289.759277,246.727264 
	C289.766327,198.629532 289.900726,150.531738 289.841003,102.434151 
	C289.835602,98.091873 291.199097,96.528221 295.579651,96.675079 
	C303.559174,96.942566 311.556213,96.652878 319.541168,96.821335 
	C321.180969,96.855934 322.799957,97.880585 324.694244,99.191772 
	C325.016022,109.611748 325.072113,119.288834 325.128174,128.965927 
	C325.075165,132.683411 325.022125,136.400894 324.995270,140.940826 
	C325.056152,142.497574 325.090820,143.231888 325.125488,143.966202 
	C325.076385,171.679077 325.027252,199.391937 325.016418,227.804138 
	C325.054718,228.503479 325.230316,228.945465 325.230316,228.945465 
	C325.963928,229.875183 326.697510,230.804901 327.964233,231.843262 
	C328.497345,231.951874 328.969513,231.873962 328.969513,231.873962 
	C341.014008,231.929443 353.058502,231.984924 365.958923,232.012299 
	C367.865784,231.948044 368.916748,231.911926 369.967682,231.875809 
	C371.054871,231.929688 372.142059,231.983566 374.094788,232.010376 
	C384.968384,232.015793 394.976379,232.048264 404.984406,232.080734 
	C405.638275,233.698425 406.820831,235.304306 406.857300,236.935791 
	C407.046478,245.402954 407.009888,253.877747 406.872681,262.346954 
	C406.851105,263.677734 405.911041,264.993622 404.952179,266.665649 
	C404.508728,267.014862 404.036560,267.140228 404.036560,267.140228 
	C398.322449,267.080780 392.608307,267.021332 385.991882,266.991486 
	C382.738159,267.055298 380.386780,267.089478 378.035370,267.123657 
	C377.573425,267.071777 377.111450,267.019897 375.847595,266.995361 
	C370.708832,267.055847 366.371979,267.089020 362.035156,267.122192 
z"/>
<path fill="#17516B" opacity="1.000000" stroke="none" 
	d="
M404.653595,231.831192 
	C394.976379,232.048264 384.968384,232.015793 374.496460,231.929321 
	C384.129333,231.777435 394.226044,231.679550 404.653595,231.831192 
z"/>
<path fill="#17536A" opacity="1.000000" stroke="none" 
	d="
M325.346588,128.619080 
	C325.072113,119.288834 325.016022,109.611748 324.986633,99.466629 
	C325.341888,103.029724 325.896393,107.058121 325.944824,111.092606 
	C326.013611,116.816803 325.709686,122.545486 325.346588,128.619080 
z"/>
<path fill="#135168" opacity="1.000000" stroke="none" 
	d="
M362.375366,267.344299 
	C366.371979,267.089020 370.708832,267.055847 375.505493,267.073181 
	C371.548706,267.271210 367.132141,267.418793 362.375366,267.344299 
z"/>
<path fill="#135168" opacity="1.000000" stroke="none" 
	d="
M378.345154,267.337219 
	C380.386780,267.089478 382.738159,267.055298 385.527679,267.071289 
	C383.528839,267.264618 381.091919,267.407715 378.345154,267.337219 
z"/>
<path fill="#17516B" opacity="1.000000" stroke="none" 
	d="
M369.724670,231.681656 
	C368.916748,231.911926 367.865784,231.948044 366.423401,231.931015 
	C367.181824,231.747726 368.331757,231.617615 369.724670,231.681656 
z"/>
<path fill="#17536A" opacity="1.000000" stroke="none" 
	d="
M325.312897,143.758606 
	C325.090820,143.231888 325.056152,142.497574 325.073456,141.398560 
	C325.250397,141.872910 325.375336,142.711945 325.312897,143.758606 
z"/>
<path fill="#17536A" opacity="1.000000" stroke="none" 
	d="
M325.294922,228.828415 
	C325.230316,228.945465 325.054718,228.503479 325.095154,228.269180 
	C325.384583,228.224930 325.459259,228.450424 325.294922,228.828415 
z"/>
<path fill="#17516B" opacity="1.000000" stroke="none" 
	d="
M328.870789,231.779938 
	C328.969513,231.873962 328.497345,231.951874 328.274567,231.864441 
	C328.292267,231.563202 328.532349,231.532837 328.870789,231.779938 
z"/>
<path fill="#135168" opacity="1.000000" stroke="none" 
	d="
M404.158936,267.205444 
	C404.036560,267.140228 404.508728,267.014862 404.752655,267.002380 
	C404.788513,267.226105 404.550079,267.319672 404.158936,267.205444 
z"/>
<path fill="#356C7E" opacity="1.000000" stroke="none" 
	d="
M218.603119,198.352722 
	C220.384247,202.508194 222.050629,206.301132 223.530945,210.165359 
	C225.249634,214.651825 224.079605,216.638809 219.451828,216.668213 
	C205.317322,216.758057 191.181000,216.753433 177.046951,216.619949 
	C172.493210,216.576950 170.965500,214.579132 172.590652,210.668213 
	C180.277176,192.170670 188.131973,173.742935 195.980270,155.313095 
	C196.387955,154.355728 197.287857,153.607956 198.830292,151.664017 
	C205.614868,167.730698 212.010468,182.876221 218.603119,198.352722 
z"/>
<path fill="#336B7C" opacity="1.000000" stroke="none" 
	d="
M247.995209,298.939270 
	C248.025070,298.468292 248.307053,298.191772 248.589050,297.915283 
	C248.748749,298.255890 248.908447,298.596497 248.922272,299.212646 
	C248.600037,299.370026 248.423676,299.251862 247.995209,298.939270 
z"/>
</svg>
