<?xml version="1.0" standalone="no"?>
<!DOCTYPE svg PUBLIC "-//W3C//DTD SVG 20010904//EN"
 "http://www.w3.org/TR/2001/REC-SVG-20010904/DTD/svg10.dtd">
<svg version="1.0" xmlns="http://www.w3.org/2000/svg"
 width="300.000000pt" height="300.000000pt" viewBox="0 0 300.000000 300.000000"
 preserveAspectRatio="xMidYMid meet">
<metadata>
Created by potrace 1.10, written by Peter Selinger 2001-2011
</metadata>
<g transform="translate(0.000000,300.000000) scale(0.100000,-0.100000)"
fill="#000000" stroke="none">
<path d="M0 1500 l0 -1500 1500 0 1500 0 0 1500 0 1500 -1500 0 -1500 0 0
-1500z m1892 954 c10 -3 20 -15 23 -27 3 -12 6 -186 7 -387 l3 -365 219 -3
c269 -3 256 4 256 -127 0 -57 -5 -97 -12 -108 -12 -15 -46 -17 -321 -18 l-309
-2 -38 38 c-22 21 -42 52 -46 69 -12 51 -6 907 7 922 6 7 20 15 32 17 28 5
156 -1 179 -9z m-640 -19 c14 -13 33 -44 42 -67 10 -24 22 -50 26 -59 5 -9 30
-67 55 -129 25 -62 51 -120 56 -129 11 -20 90 -200 129 -298 17 -40 34 -81 40
-90 11 -21 51 -127 75 -197 108 -327 22 -606 -225 -731 -113 -57 -219 -81
-236 -53 -10 15 -22 -16 -23 -58 -2 -66 -76 -108 -115 -65 -14 15 -14 23 -2
71 17 64 15 76 -17 127 -44 68 -60 136 -54 232 4 76 34 181 57 201 3 3 14 19
25 35 54 86 160 174 278 231 31 16 56 33 54 38 -2 5 -17 16 -33 25 -25 14 -63
16 -224 15 -107 -1 -202 -3 -211 -3 -10 -1 -25 -21 -37 -49 -12 -27 -28 -55
-36 -61 -10 -9 -50 -13 -116 -13 -104 0 -130 8 -130 42 0 20 256 638 350 845
10 22 28 61 39 87 32 72 42 78 130 78 70 0 81 -3 103 -25z"/>
<path d="M1695 2427 c-3 -7 -4 -217 -3 -466 l3 -453 38 -34 37 -34 303 2 302
3 0 100 0 100 -237 3 -238 2 -2 393 -3 392 -98 3 c-74 2 -99 0 -102 -11z"/>
<path d="M1068 2423 c-23 -27 -397 -902 -414 -968 l-6 -25 105 0 c114 0 116 1
138 64 24 66 31 67 271 64 l215 -3 42 -28 c23 -16 41 -33 38 -40 -2 -6 -43
-32 -91 -57 -157 -81 -269 -193 -317 -318 -44 -114 -28 -272 37 -359 28 -37
30 -61 9 -128 -8 -27 -12 -51 -10 -55 2 -3 19 -4 38 -2 33 4 35 6 41 50 23
161 100 386 171 497 42 66 115 158 121 152 3 -2 -14 -41 -36 -87 -82 -164
-200 -474 -186 -487 12 -12 119 20 195 58 57 28 95 56 138 102 151 162 172
366 68 651 -54 149 -377 899 -397 923 -7 8 -36 13 -83 13 -56 0 -75 -4 -87
-17z m171 -495 c39 -92 71 -172 71 -178 0 -13 -297 -14 -305 0 -3 5 24 80 61
167 79 189 83 198 94 187 5 -5 40 -84 79 -176z"/>
<path d="M1148 2049 c-4 -8 -28 -66 -56 -129 -27 -63 -52 -125 -56 -138 l-7
-22 120 1 c67 1 123 5 126 9 5 8 -10 44 -104 254 -12 26 -19 35 -23 25z"/>
<path d="M1294 989 c-14 -28 -23 -54 -20 -57 8 -7 9 -5 34 56 27 66 20 67 -14
1z"/>
<path d="M1261 913 c0 -6 -4 -20 -7 -30 -5 -14 -4 -15 5 -7 7 7 11 20 8 30 -3
11 -5 14 -6 7z"/>
</g>
</svg>
